<?xml version="1.0" encoding="iso-8859-1"?>
<!-- Generator: Adobe Illustrator 19.0.0, SVG Export Plug-In . SVG Version: 6.00 Build 0)  -->
<svg version="1.1" id="Layer_1" xmlns="http://www.w3.org/2000/svg" xmlns:xlink="http://www.w3.org/1999/xlink" x="0px" y="0px"
	 viewBox="0 0 512 512" style="enable-background:new 0 0 512 512;" xml:space="preserve">
<polygon style="fill:#F5F7FA;" points="309.34,85.328 309.34,16.016 17.332,8.016 17.332,500.016 387.996,500.016 387.996,85.328 
	"/>
<polygon style="fill:#CCD1D9;" points="312.996,11 310.652,84.328 379.652,76.672 "/>
<path style="fill:#ED5564;" d="M167.582,373.766c0,21.25-17.219,38.469-38.461,38.469c-21.25,0-38.469-17.219-38.469-38.469
	c0-21.234,17.219-38.469,38.469-38.469C150.363,335.297,167.582,352.531,167.582,373.766z"/>
<rect x="105.33" y="419.67" style="fill:#DA4453;" width="46" height="31.344"/>
<polygon style="fill:#656D78;" points="489.996,116 462.996,90 426.996,115.5 426.996,404.5 494.996,400 "/>
<polygon style="fill:#FFCE54;" points="479.496,408 437.996,408 426.996,455 458.668,480.5 487.496,455.5 "/>
<path d="M318.168,0H10.66v512h383.992V76.5L318.168,0z M319.996,32l42.656,42.656h-42.656V32z M31.996,490.656V21.344h266.656V96
	h74.688v394.656H31.996z"/>
<path d="M319.996,373.344h-64c-5.891,0-10.664,4.766-10.664,10.656s4.773,10.656,10.664,10.656h64
	c5.891,0,10.656-4.766,10.656-10.656S325.887,373.344,319.996,373.344z"/>
<path d="M319.996,192H85.332c-5.898,0-10.672,4.781-10.672,10.656c0,5.906,4.773,10.688,10.672,10.688h234.664
	c5.891,0,10.656-4.781,10.656-10.688C330.652,196.781,325.887,192,319.996,192z"/>
<path d="M319.996,256H85.332c-5.898,0-10.672,4.781-10.672,10.656c0,5.906,4.773,10.688,10.672,10.688h234.664
	c5.891,0,10.656-4.781,10.656-10.688C330.652,260.781,325.887,256,319.996,256z"/>
<path d="M85.332,149.344H202.66c5.891,0,10.672-4.781,10.672-10.688c0-5.875-4.781-10.656-10.672-10.656H85.332
	c-5.898,0-10.672,4.781-10.672,10.656C74.66,144.562,79.434,149.344,85.332,149.344z"/>
<path d="M127.996,320c-29.453,0-53.336,23.875-53.336,53.344c0,17.438,8.383,32.938,21.336,42.656v53.344l32-10.688l32,10.688V416
	c12.953-9.719,21.336-25.219,21.336-42.656C181.332,343.875,157.449,320,127.996,320z M138.66,439.734l-3.922-1.297l-6.742-2.25
	l-6.75,2.25l-3.914,1.297v-14.141c3.445,0.703,7.008,1.062,10.664,1.062s7.219-0.359,10.664-1.062V439.734z M127.996,405.344
	c-17.648,0-32-14.375-32-32c0-17.656,14.352-32,32-32s32,14.344,32,32C159.996,390.969,145.645,405.344,127.996,405.344z"/>
<path d="M501.34,128c0-23.562-19.109-42.672-42.688-42.672c-23.562,0-42.656,19.109-42.656,42.672v288h13.234l-13.234,46.219
	l42.656,28.438l42.688-28.438L488.09,416h13.25V128z M437.34,128c0-11.766,9.562-21.344,21.312-21.344
	c11.781,0,21.344,9.578,21.344,21.344v266.656H437.34V128z M476.527,453.125l-17.875,11.906l-17.859-11.906L451.418,416h14.484
	L476.527,453.125z"/>
<path d="M127.996,362.656c-5.891,0-10.664,4.781-10.664,10.688c0,5.875,4.773,10.656,10.664,10.656
	c5.891,0,10.664-4.781,10.664-10.656C138.66,367.438,133.887,362.656,127.996,362.656z"/>
<g>
</g>
<g>
</g>
<g>
</g>
<g>
</g>
<g>
</g>
<g>
</g>
<g>
</g>
<g>
</g>
<g>
</g>
<g>
</g>
<g>
</g>
<g>
</g>
<g>
</g>
<g>
</g>
<g>
</g>
</svg>
