<svg width="191" height="19" viewBox="0 0 191 19" version="1.1" xmlns="http://www.w3.org/2000/svg" xmlns:xlink="http://www.w3.org/1999/xlink">
<title> 9&#9;</title>
<desc>Created using Figma</desc>
<g id="Canvas" transform="translate(413 -766)">
<g id="JASATULIS.COM">
<use xlink:href="#path0_fill" transform="translate(-417 760)" fill="#F2F2F2"/>
</g>
</g>
<defs>
<path id="path0_fill" d="M 15.1369 8.784C 14.7049 8.8 14.3769 8.856 14.1529 8.952C 13.9289 9.032 13.7529 9.216 13.6249 9.504C 13.4969 9.792 13.4329 10.248 13.4329 10.872L 13.4329 17.904C 13.4329 20.16 13.0089 21.808 12.1609 22.848C 11.3289 23.872 10.0809 24.384 8.41694 24.384C 7.45694 24.384 6.64094 24.144 5.96894 23.664C 5.31294 23.168 4.98494 22.552 4.98494 21.816C 4.98494 21.256 5.14494 20.784 5.46494 20.4C 5.78494 20.016 6.22494 19.824 6.78494 19.824C 7.29694 19.824 7.68094 19.976 7.93694 20.28C 8.20894 20.584 8.35294 20.952 8.36894 21.384C 8.38494 21.64 8.31294 21.936 8.15294 22.272C 8.21694 22.416 8.32094 22.52 8.46494 22.584C 8.62494 22.632 8.76894 22.656 8.89694 22.656C 9.60094 22.656 9.95294 22.024 9.95294 20.76L 9.95294 11.136C 9.95294 10.064 9.98494 9.344 10.0489 8.976L 8.24894 9.048L 8.24894 7.2L 15.1369 7.2L 15.1369 8.784ZM 28.8876 19.848C 29.0156 20.168 29.1516 20.568 29.2956 21.048C 29.4396 21.512 29.5276 21.904 29.5596 22.224C 30.0876 22.176 30.5516 22.152 30.9516 22.152L 30.9516 24L 24.4956 24L 24.4956 22.416C 25.2636 22.416 25.6476 22.096 25.6476 21.456C 25.6476 21.136 25.5596 20.752 25.3836 20.304L 24.9036 18.984L 19.6956 19.08L 19.3116 20.208C 19.2636 20.336 19.1516 20.624 18.9756 21.072C 18.8156 21.52 18.6716 21.88 18.5436 22.152C 19.0556 22.104 19.6236 22.08 20.2476 22.08L 20.2476 24L 15.1116 24L 15.1116 22.344C 15.5276 22.344 15.8716 22.224 16.1436 21.984C 16.4316 21.744 16.6556 21.456 16.8156 21.12C 16.9756 20.768 17.1756 20.264 17.4156 19.608L 22.0956 6.768L 23.7756 6.768L 28.8876 19.848ZM 22.2636 10.992C 22.0076 12.144 21.7116 13.2 21.3756 14.16L 20.2956 17.28L 24.3036 17.28L 23.1996 14.28C 22.7356 12.968 22.4316 11.872 22.2876 10.992L 22.2636 10.992ZM 37.6949 6.816C 38.3829 6.816 39.1029 6.92 39.8549 7.128C 40.6069 7.32 41.2309 7.6 41.7269 7.968L 41.7509 7.968L 41.6549 6.984L 43.5269 6.984L 43.5269 12.576L 41.9429 12.576C 41.7349 11.264 41.2709 10.264 40.5509 9.576C 39.8469 8.888 38.9429 8.544 37.8389 8.544C 37.1189 8.544 36.4949 8.744 35.9669 9.144C 35.4549 9.528 35.1989 10.016 35.1989 10.608C 35.1989 11.312 35.4949 11.904 36.0869 12.384C 36.6789 12.864 37.6789 13.392 39.0869 13.968C 40.7029 14.608 42.0149 15.352 43.0229 16.2C 44.0469 17.032 44.5589 18.144 44.5589 19.536C 44.5589 20.48 44.3029 21.32 43.7909 22.056C 43.2789 22.792 42.5589 23.368 41.6309 23.784C 40.7029 24.184 39.6309 24.384 38.4149 24.384C 37.7589 24.384 37.0549 24.28 36.3029 24.072C 35.5669 23.864 34.8869 23.576 34.2629 23.208L 34.2389 23.208L 34.3109 24.216L 32.4629 24.216L 32.4629 18.6L 34.0469 18.6C 34.2549 19.912 34.7589 20.92 35.5589 21.624C 36.3589 22.312 37.3349 22.656 38.4869 22.656C 39.3189 22.656 40.0069 22.44 40.5509 22.008C 41.0949 21.56 41.3669 21.024 41.3669 20.4C 41.3669 19.888 41.1829 19.448 40.8149 19.08C 40.4629 18.712 40.0629 18.424 39.6149 18.216C 39.1829 18.008 38.4869 17.712 37.5269 17.328C 35.7669 16.624 34.4149 15.824 33.4709 14.928C 32.5429 14.032 32.0789 12.856 32.0789 11.4C 32.0789 10.664 32.2629 9.952 32.6309 9.264C 32.9989 8.56 33.5989 7.976 34.4309 7.512C 35.2789 7.048 36.3669 6.816 37.6949 6.816ZM 59.0986 19.848C 59.2266 20.168 59.3626 20.568 59.5066 21.048C 59.6506 21.512 59.7386 21.904 59.7706 22.224C 60.2986 22.176 60.7626 22.152 61.1626 22.152L 61.1626 24L 54.7066 24L 54.7066 22.416C 55.4746 22.416 55.8586 22.096 55.8586 21.456C 55.8586 21.136 55.7706 20.752 55.5946 20.304L 55.1146 18.984L 49.9066 19.08L 49.5226 20.208C 49.4746 20.336 49.3626 20.624 49.1866 21.072C 49.0266 21.52 48.8826 21.88 48.7546 22.152C 49.2666 22.104 49.8346 22.08 50.4586 22.08L 50.4586 24L 45.3226 24L 45.3226 22.344C 45.7386 22.344 46.0826 22.224 46.3546 21.984C 46.6426 21.744 46.8666 21.456 47.0266 21.12C 47.1866 20.768 47.3866 20.264 47.6266 19.608L 52.3066 6.768L 53.9866 6.768L 59.0986 19.848ZM 52.4746 10.992C 52.2186 12.144 51.9226 13.2 51.5866 14.16L 50.5066 17.28L 54.5146 17.28L 53.4106 14.28C 52.9466 12.968 52.6426 11.872 52.4986 10.992L 52.4746 10.992ZM 75.1842 12.624L 73.6002 12.624C 73.6002 11.36 73.3362 10.408 72.8082 9.768C 72.2962 9.112 71.5762 8.792 70.6482 8.808L 69.4962 8.808L 69.4962 20.064C 69.4962 21.136 69.4642 21.856 69.4002 22.224C 69.9282 22.176 70.5682 22.152 71.3202 22.152L 71.3202 24L 64.3122 24L 64.3122 22.416C 64.7442 22.4 65.0722 22.352 65.2962 22.272C 65.5202 22.176 65.6962 21.984 65.8242 21.696C 65.9522 21.408 66.0162 20.952 66.0162 20.328L 66.0162 8.832L 64.9122 8.832C 63.9682 8.848 63.2402 9.168 62.7282 9.792C 62.2162 10.416 61.9602 11.36 61.9602 12.624L 60.3762 12.624L 60.4962 7.2L 75.0402 7.2L 75.1842 12.624ZM 93.2656 8.784C 92.8336 8.8 92.5056 8.856 92.2816 8.952C 92.0576 9.032 91.8816 9.216 91.7536 9.504C 91.6256 9.792 91.5616 10.248 91.5616 10.872L 91.5616 16.872C 91.5616 19.496 90.9536 21.408 89.7376 22.608C 88.5376 23.792 86.9056 24.384 84.8416 24.384C 82.3296 24.384 80.5456 23.72 79.4896 22.392C 78.4496 21.048 77.9296 19.232 77.9296 16.944L 77.9296 11.136C 77.9296 10.24 77.9616 9.52 78.0256 8.976L 76.2256 9.048L 76.2256 7.2L 83.1136 7.2L 83.1136 8.784C 82.6976 8.8 82.3696 8.856 82.1296 8.952C 81.9056 9.032 81.7296 9.216 81.6016 9.504C 81.4736 9.792 81.4096 10.248 81.4096 10.872L 81.4096 17.472C 81.4096 20.864 82.7536 22.56 85.4416 22.56C 86.7056 22.56 87.6816 22.128 88.3696 21.264C 89.0736 20.4 89.4256 19.12 89.4256 17.424L 89.4256 11.136C 89.4256 10.064 89.4576 9.344 89.5216 8.976L 87.6976 9.048L 87.6976 7.2L 93.2656 7.2L 93.2656 8.784ZM 101.924 8.784C 101.492 8.8 101.164 8.856 100.94 8.952C 100.716 9.032 100.54 9.216 100.412 9.504C 100.284 9.792 100.22 10.248 100.22 10.872L 100.22 20.064C 100.22 20.928 100.188 21.632 100.124 22.176L 103.34 22.176C 104.3 22.16 105.044 21.824 105.572 21.168C 106.1 20.496 106.364 19.52 106.364 18.24L 107.972 18.24L 107.828 24L 95.0359 24L 95.0359 22.416C 95.4679 22.4 95.7959 22.352 96.0199 22.272C 96.2439 22.176 96.4199 21.984 96.5479 21.696C 96.6759 21.408 96.7399 20.952 96.7399 20.328L 96.7399 11.136C 96.7399 10.24 96.7719 9.52 96.8359 8.976L 95.0359 9.048L 95.0359 7.2L 101.924 7.2L 101.924 8.784ZM 116.408 8.784C 115.976 8.8 115.648 8.856 115.424 8.952C 115.2 9.032 115.024 9.216 114.896 9.504C 114.768 9.792 114.704 10.248 114.704 10.872L 114.704 20.064C 114.704 20.96 114.672 21.68 114.608 22.224C 115.12 22.176 115.72 22.152 116.408 22.152L 116.408 24L 109.52 24L 109.52 22.416C 109.952 22.4 110.28 22.352 110.504 22.272C 110.728 22.176 110.904 21.984 111.032 21.696C 111.16 21.408 111.224 20.952 111.224 20.328L 111.224 11.136C 111.224 10.24 111.256 9.52 111.32 8.976L 109.52 9.048L 109.52 7.2L 116.408 7.2L 116.408 8.784ZM 124.25 6.816C 124.938 6.816 125.658 6.92 126.41 7.128C 127.162 7.32 127.786 7.6 128.282 7.968L 128.306 7.968L 128.21 6.984L 130.082 6.984L 130.082 12.576L 128.498 12.576C 128.29 11.264 127.826 10.264 127.106 9.576C 126.402 8.888 125.498 8.544 124.394 8.544C 123.674 8.544 123.05 8.744 122.522 9.144C 122.01 9.528 121.754 10.016 121.754 10.608C 121.754 11.312 122.05 11.904 122.642 12.384C 123.234 12.864 124.234 13.392 125.642 13.968C 127.258 14.608 128.57 15.352 129.578 16.2C 130.602 17.032 131.114 18.144 131.114 19.536C 131.114 20.48 130.858 21.32 130.346 22.056C 129.834 22.792 129.114 23.368 128.186 23.784C 127.258 24.184 126.186 24.384 124.97 24.384C 124.314 24.384 123.61 24.28 122.858 24.072C 122.122 23.864 121.442 23.576 120.818 23.208L 120.794 23.208L 120.866 24.216L 119.018 24.216L 119.018 18.6L 120.602 18.6C 120.81 19.912 121.314 20.92 122.114 21.624C 122.914 22.312 123.89 22.656 125.042 22.656C 125.874 22.656 126.562 22.44 127.106 22.008C 127.65 21.56 127.922 21.024 127.922 20.4C 127.922 19.888 127.738 19.448 127.37 19.08C 127.018 18.712 126.618 18.424 126.17 18.216C 125.738 18.008 125.042 17.712 124.082 17.328C 122.322 16.624 120.97 15.824 120.026 14.928C 119.098 14.032 118.634 12.856 118.634 11.4C 118.634 10.664 118.818 9.952 119.186 9.264C 119.554 8.56 120.154 7.976 120.986 7.512C 121.834 7.048 122.922 6.816 124.25 6.816ZM 134.753 20.64C 135.249 20.64 135.657 20.824 135.977 21.192C 136.313 21.56 136.481 22 136.481 22.512C 136.481 23.04 136.321 23.488 136.001 23.856C 135.697 24.208 135.289 24.384 134.777 24.384C 134.265 24.384 133.841 24.208 133.505 23.856C 133.169 23.488 133.001 23.04 133.001 22.512C 133.001 22 133.177 21.56 133.529 21.192C 133.881 20.824 134.289 20.64 134.753 20.64ZM 146.271 6.816C 146.911 6.816 147.599 6.92 148.335 7.128C 149.087 7.336 149.775 7.624 150.399 7.992L 150.423 7.992L 150.327 6.984L 152.175 6.984L 152.175 12.576L 150.615 12.576C 150.183 9.92 148.839 8.576 146.583 8.544C 145.511 8.544 144.599 8.864 143.847 9.504C 143.111 10.128 142.559 10.96 142.191 12C 141.823 13.04 141.639 14.16 141.639 15.36C 141.639 16.736 141.839 17.96 142.239 19.032C 142.639 20.104 143.215 20.944 143.967 21.552C 144.719 22.144 145.623 22.44 146.679 22.44C 147.703 22.44 148.703 22.176 149.679 21.648C 150.671 21.12 151.503 20.4 152.175 19.488L 153.327 20.544C 152.271 22 151.111 23.008 149.847 23.568C 148.583 24.112 147.335 24.384 146.103 24.384C 144.487 24.384 143.055 24.008 141.807 23.256C 140.559 22.504 139.591 21.48 138.903 20.184C 138.215 18.872 137.871 17.424 137.871 15.84C 137.871 14.32 138.191 12.872 138.831 11.496C 139.487 10.104 140.447 8.976 141.711 8.112C 142.975 7.248 144.495 6.816 146.271 6.816ZM 162.819 6.816C 164.659 6.816 166.203 7.256 167.451 8.136C 168.715 9 169.651 10.104 170.259 11.448C 170.867 12.792 171.171 14.176 171.171 15.6C 171.171 16.992 170.851 18.368 170.211 19.728C 169.571 21.072 168.611 22.184 167.331 23.064C 166.067 23.944 164.539 24.384 162.747 24.384C 160.827 24.384 159.243 23.96 157.995 23.112C 156.747 22.264 155.835 21.176 155.259 19.848C 154.683 18.52 154.395 17.104 154.395 15.6C 154.395 14.176 154.715 12.792 155.355 11.448C 155.995 10.104 156.947 9 158.211 8.136C 159.491 7.256 161.027 6.816 162.819 6.816ZM 162.627 8.568C 161.571 8.568 160.707 8.904 160.035 9.576C 159.363 10.248 158.883 11.096 158.595 12.12C 158.307 13.144 158.163 14.208 158.163 15.312C 158.163 16.432 158.323 17.552 158.643 18.672C 158.963 19.792 159.483 20.736 160.203 21.504C 160.939 22.256 161.867 22.632 162.987 22.632C 164.027 22.632 164.875 22.304 165.531 21.648C 166.187 20.992 166.659 20.16 166.947 19.152C 167.235 18.144 167.379 17.096 167.379 16.008C 167.379 13.736 166.979 11.928 166.179 10.584C 165.379 9.24 164.195 8.568 162.627 8.568ZM 193.679 8.784C 193.247 8.8 192.911 8.856 192.671 8.952C 192.431 9.032 192.247 9.216 192.119 9.504C 191.991 9.792 191.935 10.248 191.951 10.872L 192.311 20.064C 192.359 20.88 192.327 21.6 192.215 22.224C 192.743 22.176 193.351 22.152 194.039 22.152L 194.039 24L 187.367 24L 187.367 22.416C 187.799 22.4 188.127 22.352 188.351 22.272C 188.591 22.176 188.775 21.984 188.903 21.696C 189.031 21.408 189.087 20.952 189.071 20.328L 188.879 15.24L 188.831 14.328C 188.751 12.776 188.703 11.696 188.687 11.088L 188.663 11.088L 183.743 24.24L 181.511 24.24L 178.271 16.344C 178.031 15.784 177.743 15 177.407 13.992C 177.087 12.984 176.815 11.96 176.591 10.92L 176.567 10.92C 176.615 12.376 176.639 13.704 176.639 14.904L 176.639 15.72L 176.615 20.064C 176.615 21.056 176.575 21.776 176.495 22.224C 177.023 22.176 177.631 22.152 178.319 22.152L 178.319 24L 172.847 24L 172.847 22.416C 173.279 22.4 173.607 22.352 173.831 22.272C 174.055 22.176 174.231 21.984 174.359 21.696C 174.487 21.408 174.551 20.952 174.551 20.328L 174.695 11.136C 174.727 9.968 174.759 9.248 174.791 8.976L 172.991 9.048L 172.991 7.2L 178.295 7.2L 181.919 16.488C 182.159 17.112 182.415 17.8 182.687 18.552C 182.959 19.304 183.151 19.88 183.263 20.28L 183.287 20.28C 183.351 20.12 183.527 19.624 183.815 18.792C 184.039 18.136 184.239 17.576 184.415 17.112L 188.135 7.2L 193.679 7.2L 193.679 8.784Z"/>
</defs>
</svg>
