<?xml version="1.0" encoding="iso-8859-1"?>
<!-- Generator: Adobe Illustrator 19.0.0, SVG Export Plug-In . SVG Version: 6.00 Build 0)  -->
<svg version="1.1" id="Layer_1" xmlns="http://www.w3.org/2000/svg" xmlns:xlink="http://www.w3.org/1999/xlink" x="0px" y="0px"
	 viewBox="0 0 512 512" style="enable-background:new 0 0 512 512;" xml:space="preserve">
<circle style="fill:#FF3D62;" cx="255.996" cy="255.996" r="255.996"/>
<path style="fill:#C2001B;" d="M512,255.999c0-9.176-0.493-18.236-1.435-27.163L365.601,83.874
	c-1.139-1.598-2.405-3.114-3.818-4.526c-2.069-2.069-4.356-3.834-6.814-5.317c-3.925-2.372-8.293-4.014-12.973-4.937
	c-0.634-0.124-1.274-0.237-1.919-0.335c-0.56-0.086-1.127-0.157-1.696-0.223c-0.368-0.292-0.742-0.574-1.12-0.851
	c-2.387-3.208-5.156-6.001-8.292-8.292c-4.118-5.536-9.374-9.844-15.687-12.46c-0.586-0.242-1.176-0.469-1.769-0.679
	c-1.187-0.42-2.388-0.773-3.601-1.064c-0.606-0.145-1.215-0.274-1.828-0.387c-1.165-0.215-2.341-0.369-3.522-0.47
	c-0.685-0.059-1.372-0.102-2.062-0.124c-3.121-0.097-6.284,0.185-9.452,0.822c-1.27,0.255-2.539,0.567-3.807,0.936
	c-1.268,0.368-2.535,0.791-3.797,1.267c-1.966-1.847-4.031-3.503-6.18-4.948c-1.075-0.722-2.17-1.391-3.285-2.004
	c-1.673-0.921-3.39-1.717-5.144-2.379c-1.17-0.442-2.357-0.825-3.559-1.147c-3.005-0.805-6.106-1.226-9.278-1.226
	c-10.134,0-19.556,4.302-27.418,11.677c-10.084-3.808-20.434-4.178-29.799-0.303c-9.376,3.881-16.442,11.473-20.884,21.311
	c-10.789,0.336-20.509,3.957-27.684,11.132c-7.167,7.166-10.787,16.87-11.131,27.643c-9.823,4.438-17.404,11.495-21.284,20.857
	c-3.886,9.374-3.514,19.739,0.303,29.837c-7.393,7.867-11.705,17.299-11.705,27.447c0,10.134,4.302,19.556,11.676,27.418
	c-3.808,10.084-4.178,20.434-0.302,29.798c2.621,6.33,6.937,11.602,12.488,15.73c2.292,3.135,5.083,5.907,8.292,8.292
	c0.275,0.376,0.556,0.748,0.845,1.113c1.054,9.082,4.599,17.214,10.818,23.434c1.4,1.4,2.902,2.656,4.485,3.787
	c1.136,1.591,2.4,3.098,3.808,4.506c0.539,0.539,1.098,1.051,1.666,1.55l-50.986,138.726l55.874,55.874
	C193.321,506.101,223.969,512,255.999,512C397.385,512,512,397.385,512,255.999z"/>
<polygon style="fill:#006EF5;" points="302.175,476.471 338.161,418.978 402.813,439.483 330.124,241.705 229.486,278.693 "/>
<polygon style="fill:#00A6FF;" points="209.825,476.471 173.839,418.978 109.187,439.483 181.877,241.705 282.514,278.693 "/>
<path style="fill:#FFDF47;" d="M405.602,185.131c0-10.134-4.302-19.556-11.676-27.418c3.808-10.084,4.178-20.434,0.302-29.798
	c-3.881-9.376-11.473-16.442-21.311-20.884c-0.336-10.789-3.956-20.509-11.132-27.684c-7.167-7.167-16.87-10.787-27.643-11.131
	c-4.439-9.823-11.495-17.404-20.857-21.284c-9.374-3.886-19.739-3.514-29.837,0.302c-7.867-7.392-17.299-11.704-27.447-11.704
	c-10.134,0-19.556,4.302-27.418,11.676c-10.084-3.808-20.434-4.178-29.798-0.302c-9.376,3.881-16.442,11.473-20.884,21.311
	c-10.789,0.336-20.509,3.956-27.684,11.132c-7.167,7.166-10.787,16.87-11.131,27.643c-9.823,4.439-17.404,11.495-21.284,20.857
	c-3.886,9.374-3.514,19.739,0.302,29.837c-7.392,7.867-11.705,17.299-11.705,27.447c0,10.134,4.302,19.556,11.676,27.418
	c-3.808,10.084-4.178,20.434-0.302,29.798c3.881,9.376,11.473,16.442,21.311,20.884c0.336,10.789,3.956,20.509,11.132,27.684
	c7.166,7.166,16.87,10.787,27.643,11.131c4.439,9.823,11.495,17.404,20.857,21.284c9.374,3.886,19.739,3.514,29.837-0.302
	c7.867,7.391,17.299,11.705,27.447,11.705c10.134,0,19.556-4.302,27.418-11.676c10.084,3.808,20.435,4.178,29.798,0.302
	c9.376-3.881,16.442-11.473,20.884-21.313c10.789-0.336,20.509-3.956,27.684-11.132c7.166-7.166,10.787-16.87,11.131-27.643
	c9.823-4.438,17.404-11.495,21.284-20.857c3.886-9.375,3.514-19.739-0.302-29.837C401.289,204.71,405.602,195.278,405.602,185.131z"
	/>
<path style="fill:#FEC000;" d="M405.602,185.131c0-10.135-4.302-19.556-11.676-27.418c3.808-10.084,4.178-20.435,0.302-29.798
	c-3.881-9.376-11.473-16.442-21.311-20.884c-0.336-10.789-3.956-20.509-11.132-27.684c-7.167-7.166-16.87-10.787-27.643-11.131
	c-4.439-9.823-11.495-17.404-20.857-21.284c-9.375-3.886-19.739-3.513-29.837,0.302c-7.867-7.392-17.299-11.704-27.447-11.704
	v299.203c10.135,0,19.556-4.302,27.418-11.677c10.084,3.808,20.435,4.178,29.798,0.302c9.376-3.881,16.442-11.473,20.884-21.312
	c10.789-0.336,20.509-3.956,27.684-11.132c7.166-7.166,10.786-16.87,11.131-27.643c9.823-4.439,17.404-11.495,21.284-20.857
	c3.886-9.374,3.514-19.739-0.302-29.837C401.289,204.71,405.602,195.279,405.602,185.131z"/>
<circle style="fill:#FFFFFF;" cx="255.996" cy="185.132" r="107.801"/>
<path style="fill:#E1E1E3;" d="M256,77.326v215.613c59.54,0,107.806-48.266,107.806-107.806S315.54,77.326,256,77.326z"/>
<circle style="fill:#FF4F19;" cx="255.996" cy="185.132" r="77.156"/>
<path style="fill:#ED2400;" d="M256,107.975v154.313c42.612,0,77.156-34.544,77.156-77.156S298.612,107.975,256,107.975z"/>
<g>
</g>
<g>
</g>
<g>
</g>
<g>
</g>
<g>
</g>
<g>
</g>
<g>
</g>
<g>
</g>
<g>
</g>
<g>
</g>
<g>
</g>
<g>
</g>
<g>
</g>
<g>
</g>
<g>
</g>
</svg>
